<svg viewBox="0 0 648.63 2527.9" xmlns="http://www.w3.org/2000/svg"><path d="m322.27 1928.9a565.84 565.84 0 0 1 -1.27 166.84c-1.23 7.85-5.21 25.65-13.16 61.25-10.08 45.17-19.18 82.21-42.93 114.48-8 10.81-16.82 20.06-26.31 18.94-8.58-1-14-10.09-17.39-16-13.7-24.07-10.78-53.47-8-69.11 4 3.41 9.24 4.46 13.47 2.52 5.83-2.67 9.06-10.73 6.27-18.4.31-.27 4.4-3.8 3.88-8.48s-5.63-9-12-8.34c2.92-5.63.91-12.5-3.86-15.29-5.21-3-12.58-.53-15.15 6-.54-.27-6.4-3.06-11.09-.05-4.88 3.13-6.77 11.44-2.67 18.72 0 0-12.94 4.67-2.83 39.23 0 0-13.79 16.81-3.86 41.1 0 0-11.95 29.06-3.6 51 0 0-7.22 10 2.3 36 0 0-2.6 66 24.23 64 11.24 18.95 31.59 46 64.86 57.57 17.68 6.15 23.05 2.38 64.75 3.4 75.92 1.86 98.2 15.33 123.09-1.61 15.16-10.32 20.54-25.95 27.74-41.37 24.23-52 71.84-211.86 43.27-209.85 0 0-2.16-1.9-7.57 5.14 0 0-2-31.26-17.27 0 2.06-8.38-3.56-16-9.79-16.48-5.32-.45-11.13 4.24-12.21 11.34 0 0-2-30-16.92-17.53 6.37-5.5 7.62-14.48 3.83-20.17-4.11-6.16-12.26-5.65-12.63-5.62-2.43-7.69-9.82-11.08-14.49-9.19-5 2-8.29 10.61-4 18.19-2.59.36-8.8 1.62-12.33 6.76-5.22 7.62-2.9 21.35 7.83 31.13-5 18-12.88 39.08-24.22 39.84-25.89 1.74-51.69-103.83-54-113.58-11.39-47.6-21.75-122.77-3.94-221.81z" fill="#071c26"/><path d="m374.68 1975.86a171.13 171.13 0 0 0 -10.07-84.08 94.21 94.21 0 0 0 -52.85.49 168.83 168.83 0 0 0 -9.36 37.13 173.18 173.18 0 0 0 .19 47.34 66.7 66.7 0 0 0 -27.2 54.4 67.75 67.75 0 0 0 3.31 20.72 68.18 68.18 0 0 1 34.23-36.32c1 2.59 2.12 5.13 3.28 7.65 1.32-.55 2.66-1.06 4-1.52v5.74h7.6a96 96 0 0 0 11.19 33.28 95.87 95.87 0 0 0 11.37-33.41h7.84v-6c1.18.36 2.34.77 3.49 1.21 1.17-2.64 2.28-5.32 3.31-8a68 68 0 0 1 35.7 34.85 68.45 68.45 0 0 0 2.5-18.69 66.65 66.65 0 0 0 -28.53-54.79z" fill="#071c26"/><path d="m322.27 1962.89a565.84 565.84 0 0 1 -1.27 166.84c-1.23 7.85-5.21 25.65-13.16 61.25-10.08 45.17-19.18 82.21-42.93 114.47-8 10.81-16.82 20.07-26.31 19-8.58-1-14-10.09-17.39-16-13.7-24.06-10.78-53.47-8-69.1 4 3.41 9.24 4.45 13.47 2.52 5.83-2.67 9.06-10.74 6.27-18.41.31-.26 4.4-3.8 3.88-8.47s-5.63-9-12-8.34c2.92-5.63.91-12.51-3.86-15.29-5.21-3-12.58-.54-15.15 6-.54-.26-6.4-3.05-11.09 0-4.88 3.13-6.77 11.44-2.67 18.72 0 0-12.94 4.67-2.83 39.23 0 0-13.79 16.81-3.86 41.09 0 0-11.95 29.06-3.6 51 0 0-7.22 10 2.3 36 0 0-2.6 65.95 24.23 63.95 11.24 18.94 31.59 46 64.86 57.56 17.68 6.16 23.05 2.39 64.75 3.41 75.92 1.86 98.2 15.32 123.09-1.61 15.16-10.32 20.54-26 27.74-41.37 24.23-52 71.84-211.87 43.27-209.85 0 0-2.16-1.9-7.57 5.13 0 0-2-31.26-17.27 0 2.06-8.38-3.56-15.95-9.79-16.47-5.32-.45-11.13 4.23-12.21 11.34 0 0-2-30-16.92-17.53 6.37-5.51 7.62-14.49 3.83-20.17-4.11-6.16-12.26-5.65-12.63-5.62-2.43-7.69-9.82-11.08-14.49-9.19-5 2-8.29 10.6-4 18.19-2.59.35-8.8 1.61-12.33 6.76-5.22 7.61-2.9 21.34 7.83 31.13-5 17.95-12.88 39.07-24.22 39.84-25.89 1.74-51.69-103.83-54-113.58-11.39-47.61-21.75-122.77-3.94-221.81z" fill="#faede4"/><circle cx="333.42" cy="421.92" fill="#04151c" r="122.11"/><path d="m468 240.49a27.26 27.26 0 0 0 37.15-37.15z" fill="#04151c"/><path d="m529.89 272.9 7.64-7.64-.09-14.02-.1.1-24.37-24.38-21.38 21.38 24.38 24.37-.1.1z" fill="#04151c"/><circle cx="480.84" cy="216.21" fill="#04151c" r="2.19"/><path d="m501.1 208.5h2.35v58.3h-2.35z" fill="#04151c" transform="matrix(.70710678 -.70710678 .70710678 .70710678 -20.93 424.77)"/><path d="m511.22 219.41h3.94v58.3h-3.94z" fill="#04151c" transform="matrix(.70710678 .70710678 -.70710678 .70710678 326.07 -290.08)"/><path d="m526.24 202.08h37.7v29.15h-37.7z" fill="#04151c" transform="matrix(.70710678 -.70710678 .70710678 .70710678 6.45 448.9)"/><path d="m462.44 265.89h37.7v29.15h-37.7z" fill="#04151c" transform="matrix(.70710678 -.70710678 .70710678 .70710678 -57.36 422.47)"/><circle cx="325.96" cy="407.09" fill="#f18889" r="122.11"/><circle cx="445.76" cy="503.95" fill="#f09ea2" r="9.84"/><circle cx="465.45" cy="447.79" fill="#f09ea2" r="4.92"/><circle cx="470.37" cy="481.33" fill="#f09ea2" r="4.92"/><circle cx="181.58" cy="368.41" fill="#f09ea2" r="4.92"/><circle cx="304.37" cy="391.83" fill="#f09ea2" r="73.82"/><path d="m525.61 2221.84-123.02 306.06h246.04z" fill="#071c26"/><path d="m648.63 2527.9h-122.38v-306.07q61.18 153.05 122.38 306.07z" fill="#f18889" opacity=".5"/><path d="m419.66 2358.03 68.28 169.87h-136.56z" fill="#071c26"/><path d="m351.38 2527.9h67.93v-169.9z" fill="#f18889" opacity=".5"/><path d="m149.15 2156.84 149.15 371.06h-298.3z" fill="#03313f"/><path d="m1 2527.9h148.38v-371.06z" fill="#f18889" opacity=".5"/><path d="m283.1 2315.08 68.28 212.82h-136.56z" fill="#03313f"/><path d="m214.82 2527.9h67.93v-212.82q-33.96 106.41-67.93 212.82z" fill="#f18889" opacity=".5"/><path d="m75 2342.37 74.19-185.53q.1 166.42.23 332.84z" fill="#f18889"/><path d="m468.73 2363.3q28.65-70.73 57.31-141.46v261.38q-28.66-59.95-57.31-119.92z" fill="#03313f" opacity=".41"/><circle cx="569.41" cy="49.03" fill="#f09ea2" r="9.84"/><circle cx="579.26" cy="4.92" fill="#f09ea2" r="4.92"/><circle cx="594.02" cy="26.41" fill="#f09ea2" r="4.92"/><circle cx="82.53" cy="183.98" fill="#f09ea2" r="4.92"/><circle cx="58.98" cy="158.34" fill="#f09ea2" r="4.92"/><path d="m466.06 232.07a27.62 27.62 0 0 0 37.64-37.64z" fill="#03313f"/><path d="m528.8 264.92 7.75-7.74-.1-14.21-.1.1-24.7-24.7-21.66 21.66 24.7 24.7-.1.1z" fill="#03313f"/><circle cx="479.1" cy="207.48" fill="#03313f" r="2.22"/><path d="m499.63 199.66h2.38v59.07h-2.38z" fill="#03313f" transform="matrix(.70710678 -.70710678 .70710678 .70710678 -15.38 421.27)"/><path d="m509.89 210.72h3.99v59.07h-3.99z" fill="#03313f" transform="matrix(.70710678 .70710678 -.70710678 .70710678 319.81 -291.59)"/><path d="m525.11 193.16h38.2v29.54h-38.2z" fill="#03313f" transform="matrix(.70710678 -.70710678 .70710678 .70710678 12.37 445.72)"/><path d="m460.45 257.82h38.2v29.54h-38.2z" fill="#03313f" transform="matrix(.70710678 -.70710678 .70710678 .70710678 -52.29 418.93)"/><g fill="#faede4"><path d="m460.39 271.58h7.42v7.42h-7.42z" transform="matrix(.70710678 -.70710678 .70710678 .70710678 -58.72 408.8)"/><path d="m466.68 277.86h7.42v7.42h-7.42z" transform="matrix(.70710678 -.70710678 .70710678 .70710678 -61.33 415.09)"/><path d="m472.97 284.15h7.42v7.42h-7.42z" transform="matrix(.70710678 -.70710678 .70710678 .70710678 -63.93 421.38)"/><path d="m466.85 265.12h7.42v7.42h-7.42z" transform="matrix(.70710678 -.70710678 .70710678 .70710678 -52.27 411.47)"/><path d="m473.14 271.41h7.42v7.42h-7.42z" transform="matrix(.70710678 -.70710678 .70710678 .70710678 -54.87 417.76)"/><path d="m479.43 277.7h7.42v7.42h-7.42z" transform="matrix(.70710678 -.70710678 .70710678 .70710678 -57.48 424.05)"/><path d="m473.39 258.58h7.42v7.42h-7.42z" transform="matrix(.70710678 -.70710678 .70710678 .70710678 -45.73 414.18)"/><path d="m479.68 264.87h7.42v7.42h-7.42z" transform="matrix(.70710678 -.70710678 .70710678 .70710678 -48.33 420.47)"/><path d="m485.97 271.16h7.42v7.42h-7.42z" transform="matrix(.70710678 -.70710678 .70710678 .70710678 -50.94 426.76)"/><path d="m530.29 201.85h7.42v7.42h-7.42z" transform="matrix(.70710678 -.70710678 .70710678 .70710678 11.05 437.8)"/><path d="m536.58 208.14h7.42v7.42h-7.42z" transform="matrix(.70710678 -.70710678 .70710678 .70710678 8.45 444.09)"/><path d="m542.87 214.43h7.42v7.42h-7.42z" transform="matrix(.70710678 -.70710678 .70710678 .70710678 5.84 450.38)"/><path d="m536.75 195.4h7.42v7.42h-7.42z" transform="matrix(.70710678 -.70710678 .70710678 .70710678 17.51 440.48)"/><path d="m543.04 201.69h7.42v7.42h-7.42z" transform="matrix(.70710678 -.70710678 .70710678 .70710678 14.9 446.77)"/><path d="m549.32 207.97h7.42v7.42h-7.42z" transform="matrix(.70710678 -.70710678 .70710678 .70710678 12.3 453.05)"/><path d="m543.29 188.85h7.42v7.42h-7.42z" transform="matrix(.70710678 -.70710678 .70710678 .70710678 24.05 443.19)"/><path d="m549.58 195.14h7.42v7.42h-7.42z" transform="matrix(.70710678 -.70710678 .70710678 .70710678 21.44 449.48)"/><path d="m555.87 201.43h7.42v7.42h-7.42z" transform="matrix(.70710678 -.70710678 .70710678 .70710678 18.84 455.76)"/></g><path d="m477.53 205.94a2.23 2.23 0 0 0 0 3.14 2.21 2.21 0 0 0 2.05.59l4.46 4.46-18 18a27.61 27.61 0 0 0 32.27-3.69l1.65 1.65-10 10 24.7 24.7-.1.1 14.21.09 3.87-3.87z" fill="#071c26" opacity=".5"/><text fill="#f18889" font-family="ArcaMajora3-Heavy, &quot;Arca Majora 3&quot;" font-size="3.31" font-weight="800" transform="matrix(.70710678 .70710678 -.70710678 .70710678 508.9 234.05)">hedylity <tspan letter-spacing="-.02em" x="14.81" y="0">t</tspan><tspan x="16.1" y="0">echnology</tspan></text><path d="m369.51 1902a135.45 135.45 0 0 1 -1.55 18.37 131.74 131.74 0 0 1 -8.57 30.6q-1.33 3.21-2.83 6.35c-.94-.37-1.88-.71-2.84-1a49.05 49.05 0 0 0 -5.69-1.51c0-.18 0-.36 0-.55.13-1.6.21-3.22.24-4.85a75.67 75.67 0 0 0 -9.12-37.33 75.64 75.64 0 0 0 -10.9 38.07v3.81.69a50.33 50.33 0 0 0 -5.63 1.4c-1.12.34-2.23.73-3.32 1.15q-1.35-3-2.55-6.16a131.86 131.86 0 0 1 -7.83-31.12 134.83 134.83 0 0 1 .6-37.77 132.13 132.13 0 0 1 30.45-65.67 132 132 0 0 1 28.55 67.87 134.15 134.15 0 0 1 .99 17.65z" fill="#f18889"/><path d="m369.06 1921.73a135 135 0 0 0 1.6-18.79 136.69 136.69 0 0 0 -.92-18.07 133.81 133.81 0 0 0 -7.81-31.92 82.18 82.18 0 0 0 -44.61-.48 133.63 133.63 0 0 0 -8.51 30.14 136.44 136.44 0 0 0 -.61 38.63 54 54 0 0 0 -21.41 60.91 56.51 56.51 0 0 1 29.49-29.07c.83 2.13 1.71 4.22 2.65 6.3q1.68-.64 3.42-1.17l-.08 4.68 6.42.1a76.57 76.57 0 0 0 8.84 27.37 76.52 76.52 0 0 0 10.14-27.08l6.62.11.08-4.91c1 .32 2 .67 2.92 1 1-2.14 2-4.3 2.93-6.5a56.55 56.55 0 0 1 29.56 29 54 54 0 0 0 -20.72-60.34z" fill="#03313f"/><path d="m348.77 1951.42c0 1.67-.1 3.32-.24 5v.56c-.18 2.14-.46 4.26-.82 6.34a76.52 76.52 0 0 1 -10.14 27.08 76.57 76.57 0 0 1 -8.84-27.37c-.25-2-.43-4.12-.52-6.22v-.71c0-1.29-.06-2.58 0-3.89a76.83 76.83 0 0 1 11.25-38.94 76.75 76.75 0 0 1 9.31 38.15z" fill="#d7d6d5"/><circle cx="339.54" cy="1881.47" fill="#f18889" r="17.27"/><circle cx="339.56" cy="1881.47" fill="#faede4" r="13.65"/><path d="m339.77 1867.82a13.68 13.68 0 0 0 -13.23 9.52 13.66 13.66 0 0 1 21.18 15.07 13.65 13.65 0 0 0 -8-24.59z" fill="#d7d6d5"/><path d="m339.15 1913.4a76.71 76.71 0 0 0 -11 38.6v3.89.71c.09 2.09.27 4.17.52 6.21a76.51 76.51 0 0 0 8.84 27.37c.15-.24.29-.48.43-.72z" fill="#03313f"/><path d="m287.5 1972.28c.25-16.24 9.06-30.61 22.68-40-.63-3.24-1.16-6.52-1.56-9.85a53 53 0 0 0 -22.23 42.7 54.79 54.79 0 0 0 1.43 13.34 46.85 46.85 0 0 1 -.32-6.19z" fill="#d7d6d5"/><path d="m388.54 1973c.25-16.18-8.26-30.77-21.84-40.56.75-3.2 1.39-6.46 1.9-9.75a52.49 52.49 0 0 1 21.3 43.22 53.91 53.91 0 0 1 -1.88 13.24 44.49 44.49 0 0 0 .52-6.15z" fill="#d7d6d5"/><path d="m338.89 1818s38.35 61.78 9.81 139.67a11.75 11.75 0 0 1 6.74 1.53s35.17-80.27-16.55-141.2z" fill="#fff" opacity=".15"/><path d="m317.31 1853.14c-.25 2-.58 4.94-.92 8.45-1.37 14.06-2.17 30.2-1.85 40.64.65 21.19 6.64 41.58 11.91 55.84a15.8 15.8 0 0 0 -2.5 0 12.29 12.29 0 0 0 -5 1.33 132.84 132.84 0 0 1 -1.68-106.24z" fill="#0a222b"/><path d="m317.32 1852.47 1.36-3.18s21.79-7.52 42.07.66l1.18 3a85 85 0 0 0 -44.61-.48z" fill="#0a222b"/></svg>