<svg viewBox="0 0 653.46 2624.14" xmlns="http://www.w3.org/2000/svg"><path d="m0 0h652.93v2624.14h-652.93z" fill="#071c26"/><path d="m653.46 2624.14s0-.48 0-1.39-5.09-362.5-8-420.61c-14.6-291.38-348.77-424.41-341.67-705.48 5.17-204.86 185.36-240.25 179.16-432.89-5.6-173.77-152.86-163.87-336.65-526.51 0 0-131.46-259.37-146-536.82v-.44s1.77 776.18 2.57 1435.43c.35 295 .66 701 .48 1188.71z" fill="#03313f"/><path d="m465.11 2624.14v-1.41c0-.77-3.63-362.5-5.7-420.61-10.38-291.38-248.2-424.41-243.15-705.48 3.68-204.86 131.92-240.25 127.51-432.89-3.98-173.75-108.77-163.85-239.58-526.49 0 0-93.55-259.37-103.92-536.82v-.44s1.28 776.18 1.84 1435.43c.26 295 .48 701 .35 1188.71z" fill="#071c26" opacity=".5"/><path d="m377 2072.11a173.49 173.49 0 0 0 -.07-45.17 168.59 168.59 0 0 0 -10-38.91 94 94 0 0 0 -52.85.49 168.83 168.83 0 0 0 -9.36 37.13 173.11 173.11 0 0 0 .19 47.33 66.71 66.71 0 0 0 -27.2 54.4 68.12 68.12 0 0 0 3.31 20.73 68.11 68.11 0 0 1 34.23-36.32q1.54 3.87 3.28 7.65c1.32-.55 2.66-1.06 4-1.52v5.73h7.6a96 96 0 0 0 11.12 33.32 95.85 95.85 0 0 0 11.37-33.42h7.84v-6c1.18.37 2.34.77 3.49 1.21 1.17-2.64 2.28-5.32 3.31-8a68 68 0 0 1 35.7 34.86 68.45 68.45 0 0 0 2.5-18.69 66.65 66.65 0 0 0 -28.46-54.82z" fill="#071c26"/><path d="m324.57 2059.13a565.84 565.84 0 0 1 -1.25 166.87c-1.23 7.85-5.21 25.65-13.16 61.25-10.08 45.18-19.18 82.22-42.93 114.48-8 10.81-16.82 20.06-26.3 18.94-8.59-1-14.05-10.09-17.4-16-13.7-24.07-10.78-53.47-8-69.11 4 3.41 9.24 4.46 13.47 2.52 5.83-2.67 9.06-10.73 6.27-18.4.32-.27 4.4-3.8 3.88-8.48s-5.63-9-12-8.33c2.92-5.64.92-12.51-3.86-15.29-5.21-3-12.58-.54-15.15 6-.54-.27-6.4-3.05-11.09-.05-4.88 3.14-6.77 11.45-2.67 18.73 0 0-12.94 4.67-2.83 39.22 0 0-13.79 16.81-3.86 41.1 0 0-12 29.06-3.6 51 0 0-7.22 10 2.3 36 0 0-2.6 65.94 24.23 63.95 11.24 18.94 31.59 46 64.86 57.56 17.68 6.15 23.05 2.38 64.75 3.4 75.92 1.86 98.2 15.33 123.09-1.61 15.16-10.32 20.54-25.95 27.74-41.37 24.23-52 71.84-211.86 43.27-209.85 0 0-2.16-1.9-7.57 5.14 0 0-2-31.26-17.27 0 2.06-8.38-3.56-15.95-9.79-16.48-5.32-.45-11.13 4.24-12.21 11.34 0 0-2-30-16.92-17.53 6.37-5.5 7.62-14.48 3.83-20.17-4.11-6.16-12.26-5.64-12.63-5.62-2.43-7.69-9.82-11.08-14.49-9.19-5 2-8.29 10.61-4 18.19-2.59.36-8.8 1.62-12.32 6.76-5.23 7.62-2.91 21.35 7.82 31.14-4.95 17.94-12.88 39.07-24.22 39.83-25.89 1.74-51.69-103.83-54-113.58-11.39-47.6-21.75-122.77-3.94-221.81z" fill="#faede4"/><path d="m314 2393.16a872 872 0 0 1 -28.29 102.48s-11.83 15-22.06-2.95-4.39-39.42 0-37.88c0 0 6.09 6.65 7.06-8.7 0 0 1.22-8.19-4.87-9.21 0 0-4.63-15.87-11.45-5.12 0 0-8-9.22-8.28 10.23 0 0-7.79 2.56-1.71 21.5 0 0-8.3 9.22-2.32 22.52 0 0-7.19 15.93-2.16 28 0 0-4.36 5.48 1.38 19.72 0 0-1.57 36.14 14.59 35 10.23 37.75 23.36 48 33.43 50.44 8.2 2 11.38-2 29-2.27 22.73-.39 24.14 6 41.35 5.21 27.63-1.33 46.52-19 49.38-21.73 6.55-6.3 11.29-13.24 15.67-21.79 14.59-28.48 43.26-116.11 26.06-115 0 0-1.3-1-4.56 2.82 0 0-1.22-17.14-10.4 0 0 0-4.89-22.77-13.24-2.82 0 0-1.23-16.46-10.2-9.6 0 0 4.28-16.71-5.29-14.14 0 0-5.1-19.7-11.21.43 0 0-8.77 5.57-2.65 25.27-6.12 18-11 21.87-14.41 21.81-20.67-.38-34.27-144.8-35.15-154.45-5.16-56.48-4.09-95.46-7-95.56-3.81-.11-4.13 68.28-22.67 155.79z" fill="#d7d6d5"/><circle cx="335.72" cy="518.16" fill="#04151c" r="122.11"/><path d="m470.27 336.74a27.26 27.26 0 0 0 37.15-37.15z" fill="#04151c"/><path d="m532.19 369.15 7.64-7.64-.09-14.03-.1.1-24.38-24.37-21.37 21.37 24.37 24.38-.09.1z" fill="#04151c"/><circle cx="483.14" cy="312.46" fill="#04151c" r="2.19"/><path d="m503.4 304.74h2.35v58.3h-2.35z" fill="#04151c" transform="matrix(.70710678 -.70710678 .70710678 .70710678 -88.31 454.59)"/><path d="m513.52 315.66h3.94v58.3h-3.94z" fill="#04151c" transform="matrix(.70710678 .70710678 -.70710678 .70710678 394.8 -263.52)"/><path d="m528.55 298.33h37.7v29.15h-37.7z" fill="#04151c" transform="matrix(.70710678 -.70710678 .70710678 .70710678 -60.93 478.72)"/><path d="m464.74 362.14h37.7v29.15h-37.7z" fill="#04151c" transform="matrix(.70710678 -.70710678 .70710678 .70710678 -124.74 452.28)"/><circle cx="328.26" cy="503.33" fill="#f18889" r="122.11"/><circle cx="448.06" cy="600.19" fill="#f09ea2" r="9.84"/><circle cx="467.75" cy="544.04" fill="#f09ea2" r="4.92"/><circle cx="472.67" cy="577.57" fill="#f09ea2" r="4.92"/><circle cx="183.88" cy="464.66" fill="#f09ea2" r="4.92"/><circle cx="306.68" cy="488.07" fill="#f09ea2" r="73.82"/><path d="m527.91 2318.08-123.02 306.06h246.04z" fill="#071c26"/><path d="m650.93 2624.14h-122.38v-306.06z" fill="#f18889" opacity=".5"/><path d="m421.96 2454.27 68.28 169.87h-136.56z" fill="#071c26"/><path d="m353.68 2624.14h67.93v-169.87q-33.96 84.95-67.93 169.87z" fill="#f18889" opacity=".5"/><path d="m151.45 2253.09 149.15 371.05h-298.3z" fill="#03313f"/><path d="m3.3 2624.14h148.38v-371.06z" fill="#f18889" opacity=".5"/><path d="m285.4 2411.33 68.28 212.81h-136.56z" fill="#03313f"/><path d="m217.12 2624.14h67.93v-212.81q-33.96 106.41-67.93 212.81z" fill="#f18889" opacity=".5"/><path d="m77.26 2438.61 74.19-185.53q.11 166.43.23 332.85z" fill="#f18889"/><path d="m471 2459.55q28.65-70.74 57.31-141.47v261.39z" fill="#03313f" opacity=".41"/><circle cx="571.71" cy="145.27" fill="#f09ea2" r="9.84"/><circle cx="581.56" cy="101.17" fill="#f09ea2" r="4.92"/><circle cx="596.32" cy="122.65" fill="#f09ea2" r="4.92"/><circle cx="84.83" cy="280.22" fill="#f09ea2" r="4.92"/><circle cx="61.28" cy="254.59" fill="#f09ea2" r="4.92"/><circle cx="509.71" cy="1114.27" fill="#f09ea2" r="9.84"/><circle cx="519.56" cy="1070.17" fill="#f09ea2" r="4.92"/><circle cx="534.32" cy="1091.65" fill="#f09ea2" r="4.92"/><circle cx="136.68" cy="863" fill="#f09ea2" r="9.84"/><circle cx="141.61" cy="910.04" fill="#f09ea2" r="4.92"/><circle cx="118.05" cy="884.4" fill="#f09ea2" r="4.92"/><path d="m468.36 328.32a27.62 27.62 0 0 0 37.64-37.64z" fill="#03313f"/><path d="m531.1 361.17 7.75-7.75-.1-14.21-.1.1-24.7-24.7-21.66 21.66 24.7 24.7-.1.1z" fill="#03313f"/><circle cx="481.4" cy="303.72" fill="#03313f" r="2.22"/><path d="m501.93 295.9h2.38v59.07h-2.38z" fill="#03313f" transform="matrix(.70710678 -.70710678 .70710678 .70710678 -82.76 451.08)"/><path d="m512.19 306.96h3.99v59.07h-3.99z" fill="#03313f" transform="matrix(.70710678 .70710678 -.70710678 .70710678 388.54 -265.02)"/><path d="m527.41 289.4h38.2v29.54h-38.2z" fill="#03313f" transform="matrix(.70710678 -.70710678 .70710678 .70710678 -55.01 475.53)"/><path d="m462.75 354.06h38.2v29.54h-38.2z" fill="#03313f" transform="matrix(.70710678 -.70710678 .70710678 .70710678 -119.67 448.75)"/><g fill="#faede4"><path d="m462.69 367.82h7.42v7.42h-7.42z" transform="matrix(.70710678 -.70710678 .70710678 .70710678 -126.1 438.61)"/><path d="m468.98 374.11h7.42v7.42h-7.42z" transform="matrix(.70710678 -.70710678 .70710678 .70710678 -128.71 444.9)"/><path d="m475.27 380.4h7.42v7.42h-7.42z" transform="matrix(.70710678 -.70710678 .70710678 .70710678 -131.31 451.19)"/><path d="m469.15 361.37h7.42v7.42h-7.42z" transform="matrix(.70710678 -.70710678 .70710678 .70710678 -119.65 441.29)"/><path d="m475.44 367.66h7.42v7.42h-7.42z" transform="matrix(.70710678 -.70710678 .70710678 .70710678 -122.26 447.58)"/><path d="m481.73 373.94h7.42v7.42h-7.42z" transform="matrix(.70710678 -.70710678 .70710678 .70710678 -124.86 453.87)"/><path d="m475.69 354.82h7.42v7.42h-7.42z" transform="matrix(.70710678 -.70710678 .70710678 .70710678 -113.11 444)"/><path d="m481.98 361.11h7.42v7.42h-7.42z" transform="matrix(.70710678 -.70710678 .70710678 .70710678 -115.71 450.29)"/><path d="m488.27 367.4h7.42v7.42h-7.42z" transform="matrix(.70710678 -.70710678 .70710678 .70710678 -118.32 456.58)"/><path d="m532.59 298.1h7.42v7.42h-7.42z" transform="matrix(.70710678 -.70710678 .70710678 .70710678 -56.33 467.62)"/><path d="m538.88 304.39h7.42v7.42h-7.42z" transform="matrix(.70710678 -.70710678 .70710678 .70710678 -58.93 473.91)"/><path d="m545.17 310.67h7.42v7.42h-7.42z" transform="matrix(.70710678 -.70710678 .70710678 .70710678 -61.54 480.2)"/><path d="m539.05 291.64h7.42v7.42h-7.42z" transform="matrix(.70710678 -.70710678 .70710678 .70710678 -49.87 470.29)"/><path d="m545.34 297.93h7.42v7.42h-7.42z" transform="matrix(.70710678 -.70710678 .70710678 .70710678 -52.48 476.58)"/><path d="m551.63 304.22h7.42v7.42h-7.42z" transform="matrix(.70710678 -.70710678 .70710678 .70710678 -55.08 482.87)"/><path d="m545.59 285.1h7.42v7.42h-7.42z" transform="matrix(.70710678 -.70710678 .70710678 .70710678 -43.33 473)"/><path d="m551.88 291.39h7.42v7.42h-7.42z" transform="matrix(.70710678 -.70710678 .70710678 .70710678 -45.94 479.29)"/><path d="m558.17 297.68h7.42v7.42h-7.42z" transform="matrix(.70710678 -.70710678 .70710678 .70710678 -48.54 485.58)"/></g><path d="m479.83 302.18a2.22 2.22 0 0 0 2.05 3.74l4.46 4.45-18 18a27.61 27.61 0 0 0 32.27-3.69l1.65 1.66-10 10 24.74 24.66-.1.1 14.21.09 3.87-3.87z" fill="#071c26" opacity=".5"/><text fill="#f18889" font-family="ArcaMajora3-Heavy, &quot;Arca Majora 3&quot;" font-size="3.31" font-weight="800" transform="matrix(.70710678 .70710678 -.70710678 .70710678 511.2 330.29)">hedylity <tspan letter-spacing="-.02em" x="14.81" y="0">t</tspan><tspan x="16.1" y="0">echnology</tspan></text><path d="m373 1999.19a135.29 135.29 0 0 1 -1.6 18.79 133.68 133.68 0 0 1 -8.84 31.3c-.92 2.19-1.9 4.36-2.93 6.49-1-.38-1.93-.73-2.92-1a52.91 52.91 0 0 0 -5.88-1.55c0-.18 0-.37 0-.55.14-1.64.22-3.3.24-5a76.72 76.72 0 0 0 -9.42-38.19 76.8 76.8 0 0 0 -11.25 38.94v3.89.71a53.72 53.72 0 0 0 -5.82 1.43q-1.74.53-3.42 1.17-1.41-3.1-2.65-6.3a133.72 133.72 0 0 1 -8.08-31.83 136.44 136.44 0 0 1 .61-38.63 134.53 134.53 0 0 1 31.44-67.17 134.56 134.56 0 0 1 29.52 69.43 136.69 136.69 0 0 1 1 18.07z" fill="#f18889"/><path d="m371.36 2018a135.29 135.29 0 0 0 1.6-18.79 136.69 136.69 0 0 0 -.92-18.07 133.81 133.81 0 0 0 -7.81-31.92 81.92 81.92 0 0 0 -44.61-.48 133.85 133.85 0 0 0 -8.51 30.14 136.44 136.44 0 0 0 -.61 38.63 54 54 0 0 0 -21.41 60.9 56.54 56.54 0 0 1 29.49-29.07q1.25 3.19 2.65 6.3 1.68-.64 3.42-1.17l-.08 4.68 6.42.1a76.51 76.51 0 0 0 8.84 27.37 76.68 76.68 0 0 0 10.17-27.09l6.61.1.08-4.9c1 .31 2 .66 2.92 1 1-2.13 2-4.3 2.93-6.49a56.49 56.49 0 0 1 29.56 29 54 54 0 0 0 -20.74-60.24z" fill="#03313f"/><path d="m351.07 2047.67c0 1.66-.1 3.32-.24 5v.55c-.18 2.15-.46 4.26-.81 6.35a76.68 76.68 0 0 1 -10.15 27.07 76.51 76.51 0 0 1 -8.84-27.37c-.25-2.05-.43-4.12-.52-6.21v-.71c0-1.29-.06-2.59 0-3.89a76.8 76.8 0 0 1 11.25-38.94 76.72 76.72 0 0 1 9.31 38.15z" fill="#d7d6d5"/><circle cx="341.84" cy="1977.72" fill="#f18889" r="17.27"/><circle cx="341.86" cy="1977.72" fill="#faede4" r="13.65"/><path d="m342.07 1964.07a13.65 13.65 0 0 0 -13.23 9.52 13.66 13.66 0 0 1 21.16 15.07 13.65 13.65 0 0 0 -7.95-24.59z" fill="#d7d6d5"/><path d="m341.45 2009.65a76.64 76.64 0 0 0 -11 38.59v3.9.71c.09 2.09.27 4.16.52 6.21a76.51 76.51 0 0 0 8.84 27.37c.15-.24.29-.48.43-.73z" fill="#03313f"/><path d="m289.8 2068.52c.25-16.23 9.06-30.61 22.68-40-.63-3.24-1.16-6.52-1.56-9.84a53 53 0 0 0 -22.23 42.7 54.79 54.79 0 0 0 1.43 13.34 46.91 46.91 0 0 1 -.32-6.2z" fill="#d7d6d5"/><path d="m390.84 2069.28c.26-16.18-8.26-30.77-21.84-40.56.75-3.21 1.39-6.46 1.9-9.76a52.49 52.49 0 0 1 21.3 43.22 53.92 53.92 0 0 1 -1.88 13.25 44.75 44.75 0 0 0 .52-6.15z" fill="#d7d6d5"/><path d="m341.17 1913.29s38.4 62.21 9.81 140.63a11.7 11.7 0 0 1 6.75 1.55s35.27-80.85-16.56-142.18z" fill="#fff" opacity=".15"/><path d="m319.61 1949.38c-.24 2-.58 4.94-.92 8.46-1.36 14.05-2.17 30.19-1.85 40.63.65 21.2 6.64 41.59 11.91 55.85a14.69 14.69 0 0 0 -2.5 0 12.43 12.43 0 0 0 -5 1.32 132.83 132.83 0 0 1 -1.68-106.24z" fill="#0a222b"/><path d="m319.62 1948.72 1.36-3.18s21.79-7.53 42.07.65l1.18 3a85 85 0 0 0 -44.61-.48z" fill="#0a222b"/></svg>