<svg viewBox="0 0 653.46 2624.14" xmlns="http://www.w3.org/2000/svg"><path d="m0 0h652.93v2624.14h-652.93z" fill="#071c26"/><path d="m653.46 2624.14s0-.48 0-1.39-5.09-362.5-8-420.61c-14.6-291.38-348.77-424.41-341.67-705.48 5.17-204.86 185.36-240.25 179.16-432.89-5.6-173.77-152.86-163.87-336.65-526.51 0 0-131.46-259.37-146-536.82v-.44s1.77 776.18 2.57 1435.43c.35 295 .66 701 .48 1188.71z" fill="#03313f"/><path d="m465.11 2624.14v-1.41c0-.77-3.63-362.5-5.7-420.61-10.38-291.38-248.2-424.41-243.15-705.48 3.68-204.86 131.92-240.25 127.51-432.89-3.98-173.75-108.77-163.85-239.58-526.49 0 0-93.55-259.37-103.92-536.82v-.44s1.28 776.18 1.84 1435.43c.26 295 .48 701 .35 1188.71z" fill="#071c26" opacity=".5"/><circle cx="328.26" cy="503.33" fill="#f18889" r="122.11"/><circle cx="448.06" cy="600.19" fill="#f09ea2" r="9.84"/><circle cx="467.75" cy="544.04" fill="#f09ea2" r="4.92"/><circle cx="472.67" cy="577.57" fill="#f09ea2" r="4.92"/><circle cx="183.88" cy="464.66" fill="#f09ea2" r="4.92"/><circle cx="306.68" cy="488.07" fill="#f09ea2" r="73.82"/><path d="m527.91 2318.08-123.02 306.06h246.04z" fill="#071c26"/><path d="m650.93 2624.14h-122.38v-306.06z" fill="#f18889" opacity=".5"/><path d="m421.96 2454.27 68.28 169.87h-136.56z" fill="#071c26"/><path d="m353.68 2624.14h67.93v-169.87q-33.96 84.95-67.93 169.87z" fill="#f18889" opacity=".5"/><path d="m151.45 2253.09 149.15 371.05h-298.3z" fill="#03313f"/><path d="m3.3 2624.14h148.38v-371.06z" fill="#f18889" opacity=".5"/><path d="m285.4 2411.33 68.28 212.81h-136.56z" fill="#03313f"/><path d="m217.12 2624.14h67.93v-212.81q-33.96 106.41-67.93 212.81z" fill="#f18889" opacity=".5"/><path d="m77.26 2438.61 74.19-185.52v261.38z" fill="#f18889"/><path d="m454.15 2503.61 74.19-185.53v261.39z" fill="#03313f" opacity=".41"/><circle cx="571.71" cy="145.27" fill="#f09ea2" r="9.84"/><circle cx="581.56" cy="101.17" fill="#f09ea2" r="4.92"/><circle cx="596.32" cy="122.65" fill="#f09ea2" r="4.92"/><circle cx="84.83" cy="280.22" fill="#f09ea2" r="4.92"/><circle cx="61.28" cy="254.59" fill="#f09ea2" r="4.92"/><circle cx="509.71" cy="1114.27" fill="#f09ea2" r="9.84"/><circle cx="519.56" cy="1070.17" fill="#f09ea2" r="4.92"/><circle cx="534.32" cy="1091.65" fill="#f09ea2" r="4.92"/><circle cx="136.68" cy="863" fill="#f09ea2" r="9.84"/><circle cx="141.61" cy="910.04" fill="#f09ea2" r="4.92"/><circle cx="118.05" cy="884.4" fill="#f09ea2" r="4.92"/><path d="m468.36 328.32a27.62 27.62 0 0 0 37.64-37.64z" fill="#03313f"/><path d="m531.1 361.17 7.75-7.75-.1-14.21-.1.1-24.7-24.7-21.66 21.66 24.7 24.7-.1.1z" fill="#03313f"/><circle cx="481.4" cy="303.72" fill="#03313f" r="2.22"/><path d="m501.93 295.9h2.38v59.07h-2.38z" fill="#03313f" transform="matrix(.70710678 -.70710678 .70710678 .70710678 -82.76 451.08)"/><path d="m512.19 306.96h3.99v59.07h-3.99z" fill="#03313f" transform="matrix(.70710678 .70710678 -.70710678 .70710678 388.54 -265.02)"/><path d="m527.41 289.4h38.2v29.54h-38.2z" fill="#03313f" transform="matrix(.70710678 -.70710678 .70710678 .70710678 -55.01 475.53)"/><path d="m462.75 354.06h38.2v29.54h-38.2z" fill="#03313f" transform="matrix(.70710678 -.70710678 .70710678 .70710678 -119.67 448.75)"/><g fill="#faede4"><path d="m462.69 367.82h7.42v7.42h-7.42z" transform="matrix(.70710678 -.70710678 .70710678 .70710678 -126.1 438.61)"/><path d="m468.98 374.11h7.42v7.42h-7.42z" transform="matrix(.70710678 -.70710678 .70710678 .70710678 -128.71 444.9)"/><path d="m475.27 380.4h7.42v7.42h-7.42z" transform="matrix(.70710678 -.70710678 .70710678 .70710678 -131.31 451.19)"/><path d="m469.15 361.37h7.42v7.42h-7.42z" transform="matrix(.70710678 -.70710678 .70710678 .70710678 -119.65 441.29)"/><path d="m475.44 367.66h7.42v7.42h-7.42z" transform="matrix(.70710678 -.70710678 .70710678 .70710678 -122.26 447.58)"/><path d="m481.73 373.94h7.42v7.42h-7.42z" transform="matrix(.70710678 -.70710678 .70710678 .70710678 -124.86 453.87)"/><path d="m475.69 354.82h7.42v7.42h-7.42z" transform="matrix(.70710678 -.70710678 .70710678 .70710678 -113.11 444)"/><path d="m481.98 361.11h7.42v7.42h-7.42z" transform="matrix(.70710678 -.70710678 .70710678 .70710678 -115.71 450.29)"/><path d="m488.27 367.4h7.42v7.42h-7.42z" transform="matrix(.70710678 -.70710678 .70710678 .70710678 -118.32 456.58)"/><path d="m532.59 298.1h7.42v7.42h-7.42z" transform="matrix(.70710678 -.70710678 .70710678 .70710678 -56.33 467.62)"/><path d="m538.88 304.39h7.42v7.42h-7.42z" transform="matrix(.70710678 -.70710678 .70710678 .70710678 -58.93 473.91)"/><path d="m545.17 310.67h7.42v7.42h-7.42z" transform="matrix(.70710678 -.70710678 .70710678 .70710678 -61.54 480.2)"/><path d="m539.05 291.64h7.42v7.42h-7.42z" transform="matrix(.70710678 -.70710678 .70710678 .70710678 -49.87 470.29)"/><path d="m545.34 297.93h7.42v7.42h-7.42z" transform="matrix(.70710678 -.70710678 .70710678 .70710678 -52.48 476.58)"/><path d="m551.63 304.22h7.42v7.42h-7.42z" transform="matrix(.70710678 -.70710678 .70710678 .70710678 -55.08 482.87)"/><path d="m545.59 285.1h7.42v7.42h-7.42z" transform="matrix(.70710678 -.70710678 .70710678 .70710678 -43.33 473)"/><path d="m551.88 291.39h7.42v7.42h-7.42z" transform="matrix(.70710678 -.70710678 .70710678 .70710678 -45.94 479.29)"/><path d="m558.17 297.68h7.42v7.42h-7.42z" transform="matrix(.70710678 -.70710678 .70710678 .70710678 -48.54 485.58)"/></g><path d="m479.83 302.18a2.22 2.22 0 0 0 2.05 3.74l4.46 4.45-18 18a27.61 27.61 0 0 0 32.27-3.69l1.65 1.66-10 10 24.74 24.66-.1.1 14.21.09 3.87-3.87z" fill="#071c26" opacity=".5"/></svg>